<svg xmlns="http://www.w3.org/2000/svg" width="64" height="64" enable-background="new 0 0 64 64" viewBox="0 0 64 64" id="boxing-gloves"><path d="M5.004,57.002L5.004,57.002h1.998c0.002,3.857,3.142,6.996,7,6.996h11.99c2.553,0,4.785-1.379,6.008-3.426
		c1.223,2.047,3.455,3.426,6.008,3.426h11.99c3.858,0,6.998-3.139,7-6.996h1.997h0.001c2.201-0.003,3.993-1.796,3.996-3.997
		c0,0,0,0,0-0.001l0,0v-9l0,0c0-0.001,0-0.001,0-0.001c-0.002-3.514-2.612-6.423-5.994-6.909v-2.082c0-2.415-1.72-4.435-3.998-4.899
		v-2.111V24v-2.995c0-0.552-0.447-1-1-1H36.812L33.591,5.544c0.846-0.532,1.413-1.468,1.413-2.539c0-1.656-1.348-3.004-3.004-3.004
		s-3.004,1.348-3.004,3.004c0,1.071,0.567,2.007,1.414,2.539l-3.221,14.461H12c-0.553,0-1,0.448-1,1V24v4.001v2.111
		c-2.278,0.465-3.998,2.485-3.998,4.899v2.082C3.62,37.58,1.01,40.489,1.008,44.003c0,0,0,0,0,0.001l0,0v9l0,0
		c0,0.001,0,0.001,0,0.001C1.011,55.206,2.803,56.999,5.004,57.002z M25.992,61.998h-11.99c-2.757,0-5-2.243-5-5v-2.109
		c0.083-2.141,1.838-3.859,3.998-3.859h14c2.141,0,3.879,1.688,3.992,3.802v0.174c0,0.013-0.002,0.025-0.002,0.038
		c0,0.004,0.002,0.006,0.002,0.01v1.945C30.992,59.755,28.749,61.998,25.992,61.998z M28.991,30.102v-8.984L32,7.606l3.009,13.511
		v8.984c-1.231,0.252-2.286,0.969-3.009,1.945C31.277,31.07,30.223,30.354,28.991,30.102z M54.998,56.998c0,2.757-2.243,5-5,5
		h-11.99c-2.757,0-5-2.243-5-5v-1.926c0-0.011,0.006-0.019,0.006-0.029c0-0.039-0.005-0.077-0.006-0.115v-0.059
		c0.094-2.131,1.843-3.84,3.996-3.84h14c2.146,0,3.891,1.699,3.994,3.82V56.998z M60.992,44.005v8.998
		c-0.001,1.101-0.897,1.998-1.998,1.999h-1.979c-0.001-0.116-0.01-0.229-0.018-0.345V39.114
		C59.272,39.578,60.99,41.595,60.992,44.005z M54.998,35.012V50.56c-1.063-0.948-2.46-1.53-3.994-1.53h-14
		c-1.535,0-2.933,0.582-3.996,1.532v-15.55c0-1.644,1.323-2.979,2.959-3.007c0.015,0.001,0.027,0.009,0.042,0.009H43v6.989
		c0,0.553,0.447,1,1,1s1-0.447,1-1v-6.989h7c0.002,0,0.004-0.001,0.007-0.001C53.656,32.016,54.998,33.359,54.998,35.012z
		 M51,27.001h-8.992l-0.001-2L51,25V27.001z M37.009,22.005H51V23l-9.993,0.001c-0.266,0-0.52,0.105-0.707,0.293
		s-0.293,0.442-0.293,0.707l0.001,4c0,0.552,0.448,1,1,1H51v1.012H37.009V22.005z M32,2.001c0.554,0,1.004,0.45,1.004,1.004
		c0,0.554-0.45,1.005-1.004,1.005s-1.004-0.451-1.004-1.005C30.996,2.452,31.446,2.001,32,2.001z M26.991,22.005v8.008H13v-1.012
		h9.992c0.552,0,1-0.448,1-1l0.001-4c0-0.265-0.105-0.52-0.293-0.707s-0.441-0.293-0.707-0.293L13,23v-0.995H26.991z M13,25
		l8.993,0.001l-0.001,2H13V25z M11.993,32.012c0.003,0,0.005,0.001,0.007,0.001h7v6.989c0,0.553,0.447,1,1,1s1-0.447,1-1v-6.989
		h6.991c0.015,0,0.027-0.008,0.042-0.009c1.636,0.028,2.959,1.364,2.959,3.007v15.546c-1.063-0.947-2.459-1.528-3.992-1.528H13
		c-1.536,0-2.935,0.583-3.998,1.533V35.012C9.002,33.359,10.344,32.016,11.993,32.012z M7.002,39.114v15.62
		c-0.005,0.09-0.013,0.178-0.014,0.268H5.006c-1.101-0.001-1.997-0.898-1.998-1.999v-8.998C3.01,41.595,4.728,39.578,7.002,39.114z"></path></svg>