<svg xmlns="http://www.w3.org/2000/svg" enable-background="new 0 0 64 64" viewBox="0 0 64 64" id="gaming-punch"><path fill="#ffd630" d="M63.54,32.37c0,0-2.08,0.92-4.27,3.13c-0.65,0.65-1.31,1.42-1.91,2.3c-2.29,3.26-4.01,8.16-2.66,15.17
			c0,0-1.17-0.36-2.99-0.58C46.95,51.85,37.79,52.32,33.74,63c0,0-6.25-14.07-17.78-13.8c-0.26-3.44-1.25-8.27-4.48-11.41
			c-0.77-1.38-1.8-2.67-3.17-3.74c-1.5-1.19-3.41-2.1-5.84-2.55c0,0,14.46-2.9,9.44-21.25c0,0,16.82,4.94,20.65-10.25
			c0,0,7.67,16.21,21.83,10.25C54.39,10.25,50.56,26.83,63.54,32.37z"></path><path fill="#e56353" d="M44.06,38.35c0,3.51-1.49,6.99-4.42,9.43c-5.06,4.2-11.44,8.16-17.29,7.86l-7.58,7.58
			c-1.03,1.03-2.69,1.03-3.71,0c-4.36-2.56-7.97-5.62-9.82-9.82c-1.03-1.03-1.03-2.69,0-3.71l1.29-1.3l3.64-3.63l2.48-2.5l0.55-0.55
			c0,0-2.07-12.73,10.79-20.27c1.34-0.79,3.08-0.53,4.19,0.58c0.68,0.68,1.03,1.56,1.03,2.46c0,0.69-0.2,1.37-0.62,1.98l-4.85,7.05
			l2.66-3.13c4.65-5.48,13-5.82,18.07-0.74C42.86,32.06,44.06,35.22,44.06,38.35z"></path><path fill="#e0ded7" d="M22.35 55.65l-.53.53c-6.07-3-10.49-7.69-13.17-13.91l.55-.55C11.75 47.82 16.4 52.76 22.35 55.65zM13.77 56.61c-.29.92-1.14 1.52-2.05 1.52-.23 0-.45-.03-.66-.1-4.25-1.36-7.11-4.59-8.54-9.64l3.64-3.63c.79 5.06 2.83 8.05 6.21 9.13C13.51 54.26 14.14 55.49 13.77 56.61z"></path></svg>